<?xml version="1.0" encoding="UTF-8" standalone="no"?>
<!-- Generator: Adobe Illustrator 28.2.0, SVG Export Plug-In . SVG Version: 6.00 Build 0)  -->

<svg
   version="1.1"
   id="Layer_2_00000054961298599488539040000015463356717524468371_"
   x="0px"
   y="0px"
   viewBox="0 0 399.99999 399.99999"
   xml:space="preserve"
   sodipodi:docname="Black RAiD (mod).svg"
   width="400"
   height="400"
   inkscape:version="1.3.2 (091e20e, 2023-11-25, custom)"
   xmlns:inkscape="http://www.inkscape.org/namespaces/inkscape"
   xmlns:sodipodi="http://sodipodi.sourceforge.net/DTD/sodipodi-0.dtd"
   xmlns="http://www.w3.org/2000/svg"
   xmlns:svg="http://www.w3.org/2000/svg"><defs
   id="defs4" /><sodipodi:namedview
   id="namedview4"
   pagecolor="#505050"
   bordercolor="#eeeeee"
   borderopacity="1"
   inkscape:showpageshadow="0"
   inkscape:pageopacity="0"
   inkscape:pagecheckerboard="0"
   inkscape:deskcolor="#505050"
   inkscape:zoom="2.6156045"
   inkscape:cx="179.69077"
   inkscape:cy="244.49415"
   inkscape:window-width="1920"
   inkscape:window-height="1111"
   inkscape:window-x="-9"
   inkscape:window-y="-9"
   inkscape:window-maximized="1"
   inkscape:current-layer="Layer_2_00000054961298599488539040000015463356717524468371_" />
<style
   type="text/css"
   id="style1">
	.st0{fill:#398BCA;}
</style>

<rect
   style="fill:#ffffff;fill-opacity:1"
   id="rect4"
   width="400"
   height="400"
   x="0"
   y="0" /><g
   id="g4"
   transform="translate(24.95,127.1)"><g
     id="g3">
	<path
   d="m 53.5,87.5 c 2,-0.5 3.9,-1.3 5.6,-2.3 3.5,-2.1 6.3,-5.1 8.2,-8.9 2,-3.8 3,-8.3 3,-13.4 0,-5.1 -1,-9.6 -2.9,-13.4 -1.9,-3.8 -4.7,-6.8 -8.2,-8.9 -3.5,-2.1 -7.7,-3.2 -12.4,-3.2 H 9.4 v 85.3 h 16 V 88.4 h 9.7 l 19.2,34.3 H 73.8 Z M 25.4,52.8 h 20 c 2.5,0 4.6,0.9 6.1,2.8 1.5,1.8 2.3,4.3 2.3,7.3 0,3 -0.8,5.4 -2.3,7.3 C 50,72 48,73 45.5,73 h -20 V 52.8 Z"
   id="path1" />
	<path
   d="m 214.4,53.5 v -16 h 16.1 v 16 z m 0,69.1 V 61.8 h 16.1 v 60.8 z"
   id="path2" />
	<path
   d="m 331.8,45.4 c -5.8,-5.3 -14.1,-8 -24.8,-8 h -28.2 v 85.2 H 307 c 7.5,0 13.7,-1.3 18.7,-3.8 5,-2.6 8.7,-6.1 11.2,-10.7 2.5,-4.6 3.8,-9.9 3.8,-16 V 68 c -0.1,-9.7 -3,-17.2 -8.9,-22.6 z M 324,92.6 c 0,4.6 -1.4,8.2 -4.3,10.8 -2.9,2.6 -7,3.8 -12.2,3.8 H 295 V 52.9 h 12.5 c 5.3,0 9.4,1.3 12.2,3.8 2.9,2.5 4.3,6.1 4.3,10.8 z"
   id="path3" />
</g><g
     id="Layer_1-2">
	<path
   class="st0"
   d="m 147,18.7 c 0.6,4.4 1.1,8.6 1.5,13 0.3,0.7 0,1.6 0.4,2.4 0.1,1.1 0.1,2.1 0.4,3.1 0.2,2.3 1.3,4.3 1.9,6.5 1.4,-1.1 2.6,-3.7 4.1,-4 1.1,1.7 2,3.5 1.9,5.6 0.6,6.6 0.4,13.2 0.9,19.7 0.3,2.9 2.4,5.7 3.7,8.2 1.9,1.4 3.8,2.7 5.7,3.8 5.7,4.1 11.7,7.8 17.4,11.8 2.3,1.2 4.2,3.1 6.5,4.4 v 14.6 c -5.8,1.1 -11.5,2.9 -17.4,4.2 -4.8,1.5 -10.5,2.4 -15.3,4 0.9,2.1 1.5,4.2 2.6,6.1 4,2.2 7.9,5.1 11.7,7.8 0.8,0.6 2.3,0.9 2.4,1.9 0,2.6 0,5.2 0,7.8 -0.8,0.3 -1.7,0.5 -2.5,0.7 -4.2,1.1 -8.6,2.1 -12.8,3.3 -3,0.8 -6.5,1.2 -9.2,2.3 h -0.2 c -0.5,-4.4 -1.3,-8.8 -1.9,-13.1 -0.3,-1.3 -0.6,-2.6 -0.9,-3.9 -0.3,-1 -0.7,-2 -0.6,-3.1 -1.1,1.7 -1.8,3.5 -2.5,5.3 -7.1,-0.1 -6.4,1.5 -9.3,-5.3 -0.2,2.7 -1.4,5.1 -1.6,7.6 -0.8,4.2 -1.2,8.3 -1.9,12.5 -7.4,-2.1 -16,-3.8 -23.7,-6 -2.3,-0.6 -0.5,-5.5 -1,-7.6 0,-1.8 2.6,-2 3.6,-3.3 2.7,-1.6 5.3,-3.6 8,-5.3 2.2,-1.2 3.2,-2.1 3.9,-4.7 0.3,-1.5 2.3,-3.5 -0.2,-3.5 -10.6,-2.6 -20.8,-5.6 -31.4,-7.7 V 93.3 c 2.1,-1 3.8,-2.7 5.7,-3.9 5.7,-3.6 11.1,-7.6 16.8,-11.2 6.1,-4.2 8.3,-4.8 10.9,-12.4 0.4,-6.8 0.5,-13.6 0.9,-20.5 0.1,-2 0.9,-3.8 1.8,-5.5 1,-0.8 3,3.2 4.2,3.9 1.7,-4.2 2.5,-8.5 2.7,-13.2 0.6,-3.7 0.9,-7.5 1.5,-11.2 0.4,-3.2 0.6,-6.5 1.2,-9.6 0.6,-3.6 2.4,-7.4 4.2,-9.8 2,2.4 3.7,6.5 4.6,9.9 z"
   id="path4" />
</g></g>
</svg>
